<?xml version="1.0" encoding="UTF-8" standalone="no"?>
<!DOCTYPE svg PUBLIC "-//W3C//DTD SVG 1.1//EN" "http://www.w3.org/Graphics/SVG/1.1/DTD/svg11.dtd">
<svg width="100%" height="100%" viewBox="0 0 100 100" version="1.1" xmlns="http://www.w3.org/2000/svg" xmlns:xlink="http://www.w3.org/1999/xlink" xml:space="preserve" xmlns:serif="http://www.serif.com/" style="fill-rule:evenodd;clip-rule:evenodd;stroke-linejoin:round;stroke-miterlimit:2;">
    <circle cx="50" cy="50" r="50" style="fill:rgb(235,235,235);"/>
    <path d="M50,0C77.596,0 100,22.404 100,50C100,77.596 77.596,100 50,100C22.404,100 0,77.596 0,50C0,22.404 22.404,0 50,0ZM50,3C24.06,3 3,24.06 3,50C3,75.94 24.06,97 50,97C75.94,97 97,75.94 97,50C97,24.06 75.94,3 50,3Z" style="fill:rgb(214,92,112);"/>
    <g transform="matrix(0.280591,0,0,0.280591,-68.8629,-40.9456)">
        <g transform="matrix(288,0,0,288,341.856,416.299)">
            <path d="M-0.038,0.005C-0.045,0.005 -0.049,0.004 -0.052,0.001C-0.054,-0.003 -0.055,-0.006 -0.054,-0.01C-0.052,-0.02 -0.043,-0.027 -0.026,-0.031C-0.001,-0.038 0.018,-0.045 0.03,-0.053C0.042,-0.06 0.051,-0.075 0.058,-0.096L0.198,-0.551C0.205,-0.574 0.206,-0.59 0.2,-0.599C0.193,-0.608 0.179,-0.614 0.156,-0.619C0.148,-0.621 0.143,-0.624 0.14,-0.628C0.137,-0.631 0.136,-0.635 0.137,-0.64C0.138,-0.644 0.142,-0.648 0.149,-0.651C0.156,-0.654 0.166,-0.655 0.179,-0.655C0.188,-0.655 0.199,-0.655 0.214,-0.654C0.228,-0.653 0.243,-0.652 0.26,-0.651C0.276,-0.65 0.291,-0.649 0.304,-0.649L0.469,-0.65C0.499,-0.65 0.523,-0.651 0.542,-0.654C0.56,-0.656 0.574,-0.658 0.584,-0.66C0.594,-0.661 0.601,-0.662 0.604,-0.662C0.609,-0.662 0.613,-0.66 0.617,-0.657C0.62,-0.654 0.622,-0.649 0.622,-0.642C0.622,-0.634 0.62,-0.623 0.616,-0.608C0.611,-0.593 0.607,-0.578 0.603,-0.561C0.598,-0.544 0.596,-0.529 0.595,-0.514C0.595,-0.507 0.593,-0.502 0.59,-0.499C0.586,-0.496 0.582,-0.494 0.579,-0.494C0.576,-0.494 0.574,-0.496 0.571,-0.499C0.568,-0.501 0.565,-0.506 0.564,-0.512C0.561,-0.549 0.555,-0.576 0.546,-0.592C0.537,-0.607 0.519,-0.615 0.494,-0.615L0.416,-0.615C0.399,-0.615 0.386,-0.61 0.376,-0.601C0.365,-0.591 0.356,-0.572 0.347,-0.543L0.299,-0.379C0.296,-0.37 0.297,-0.363 0.3,-0.36C0.303,-0.356 0.308,-0.354 0.317,-0.354L0.408,-0.354C0.425,-0.355 0.44,-0.36 0.453,-0.371C0.465,-0.381 0.476,-0.395 0.486,-0.412C0.489,-0.418 0.494,-0.423 0.5,-0.427C0.505,-0.43 0.51,-0.432 0.514,-0.432C0.518,-0.432 0.521,-0.43 0.522,-0.426C0.523,-0.421 0.522,-0.415 0.519,-0.408C0.513,-0.394 0.507,-0.381 0.502,-0.368C0.497,-0.355 0.492,-0.342 0.489,-0.329C0.485,-0.316 0.481,-0.304 0.478,-0.291C0.475,-0.278 0.471,-0.263 0.468,-0.248C0.465,-0.239 0.463,-0.233 0.46,-0.228C0.456,-0.223 0.453,-0.221 0.45,-0.221C0.445,-0.221 0.441,-0.224 0.438,-0.229C0.435,-0.234 0.433,-0.24 0.434,-0.246C0.435,-0.267 0.433,-0.284 0.428,-0.296C0.423,-0.307 0.415,-0.313 0.402,-0.313L0.302,-0.313C0.294,-0.313 0.287,-0.311 0.282,-0.308C0.276,-0.304 0.272,-0.298 0.27,-0.289L0.219,-0.114C0.212,-0.087 0.212,-0.068 0.22,-0.055C0.227,-0.042 0.244,-0.036 0.27,-0.036L0.357,-0.036C0.371,-0.036 0.385,-0.038 0.399,-0.043C0.412,-0.048 0.425,-0.054 0.437,-0.062C0.45,-0.071 0.463,-0.084 0.475,-0.102C0.487,-0.119 0.499,-0.137 0.511,-0.155C0.514,-0.16 0.517,-0.163 0.52,-0.165C0.522,-0.167 0.525,-0.168 0.529,-0.168C0.533,-0.168 0.536,-0.166 0.537,-0.163C0.538,-0.159 0.539,-0.153 0.539,-0.145C0.539,-0.138 0.536,-0.127 0.531,-0.11C0.526,-0.093 0.519,-0.075 0.511,-0.056C0.502,-0.037 0.494,-0.022 0.485,-0.009C0.482,-0.004 0.478,-0.001 0.473,0.001C0.468,0.003 0.462,0.004 0.456,0.004C0.449,0.004 0.436,0.004 0.417,0.004C0.397,0.003 0.375,0.003 0.349,0.003C0.323,0.002 0.296,0.002 0.267,0.002C0.238,0.001 0.209,0.001 0.18,0.001C0.151,0 0.125,-0 0.102,-0C0.088,-0 0.073,0 0.056,0.001C0.039,0.002 0.023,0.003 0.007,0.004C-0.009,0.005 -0.024,0.005 -0.038,0.005Z" style="fill:rgb(214,92,112);fill-rule:nonzero;"/>
        </g>
    </g>
</svg>
