<?xml version="1.0" encoding="UTF-8" standalone="no"?>
<!DOCTYPE svg PUBLIC "-//W3C//DTD SVG 1.1//EN" "http://www.w3.org/Graphics/SVG/1.1/DTD/svg11.dtd">
<svg width="100%" height="100%" viewBox="0 0 796 208" version="1.1" xmlns="http://www.w3.org/2000/svg" xmlns:xlink="http://www.w3.org/1999/xlink" xml:space="preserve" xmlns:serif="http://www.serif.com/" style="fill-rule:evenodd;clip-rule:evenodd;stroke-linejoin:round;stroke-miterlimit:2;">
    <g transform="matrix(1,0,0,1,-180.639,-168.555)">
        <g transform="matrix(0.333333,0,0,0.333333,44.8311,115.302)">
            <g transform="matrix(720,0,0,720,400.944,578.8)">
                <path d="M0.133,0.046C0.252,0.046 0.395,-0.074 0.446,-0.153C0.462,-0.177 0.47,-0.201 0.47,-0.219C0.47,-0.246 0.453,-0.264 0.415,-0.264C0.316,-0.264 0.217,-0.161 0.19,-0.089C0.188,-0.081 0.189,-0.076 0.192,-0.076C0.194,-0.076 0.195,-0.077 0.197,-0.078C0.229,-0.158 0.319,-0.232 0.376,-0.242C0.382,-0.243 0.388,-0.244 0.393,-0.244C0.417,-0.244 0.427,-0.231 0.427,-0.214C0.427,-0.212 0.426,-0.209 0.426,-0.206C0.409,-0.106 0.263,0.028 0.146,0.028C0.081,0.028 0.061,0.001 0.061,-0.039C0.061,-0.05 0.063,-0.062 0.065,-0.074C0.082,-0.181 0.193,-0.298 0.301,-0.314C0.305,-0.296 0.323,-0.283 0.361,-0.283C0.376,-0.283 0.387,-0.287 0.39,-0.294C0.39,-0.297 0.388,-0.301 0.382,-0.305C0.366,-0.314 0.342,-0.319 0.317,-0.318L0.322,-0.338L0.334,-0.338C0.452,-0.338 0.623,-0.386 0.658,-0.498C0.66,-0.505 0.661,-0.511 0.661,-0.517C0.661,-0.554 0.625,-0.573 0.582,-0.577C0.574,-0.578 0.565,-0.578 0.559,-0.578C0.428,-0.578 0.306,-0.462 0.298,-0.354C0.198,-0.363 0.114,-0.404 0.114,-0.473C0.114,-0.485 0.116,-0.498 0.122,-0.512C0.138,-0.555 0.178,-0.565 0.209,-0.565C0.217,-0.565 0.223,-0.565 0.229,-0.564C0.257,-0.562 0.286,-0.548 0.309,-0.524C0.314,-0.52 0.318,-0.518 0.319,-0.518C0.32,-0.518 0.321,-0.519 0.321,-0.52C0.321,-0.522 0.319,-0.525 0.315,-0.53C0.288,-0.562 0.247,-0.578 0.217,-0.581C0.21,-0.582 0.203,-0.582 0.196,-0.582C0.155,-0.582 0.107,-0.569 0.088,-0.518C0.083,-0.505 0.081,-0.492 0.081,-0.48C0.081,-0.398 0.18,-0.349 0.298,-0.339C0.298,-0.332 0.298,-0.324 0.3,-0.317C0.184,-0.313 0.03,-0.207 0.012,-0.091C0.01,-0.08 0.009,-0.07 0.009,-0.061C0.009,0.006 0.052,0.046 0.133,0.046ZM0.328,-0.352C0.343,-0.389 0.371,-0.436 0.409,-0.471C0.468,-0.525 0.528,-0.552 0.571,-0.552C0.621,-0.552 0.635,-0.535 0.635,-0.515C0.635,-0.511 0.635,-0.508 0.634,-0.504C0.613,-0.414 0.47,-0.352 0.335,-0.352L0.328,-0.352Z" style="fill:rgb(255,203,15);fill-rule:nonzero;"/>
            </g>
            <g transform="matrix(720,0,0,720,744.384,578.8)">
                <path d="M0.076,0.007C0.148,0.007 0.194,-0.044 0.235,-0.091C0.238,-0.095 0.239,-0.1 0.239,-0.105C0.239,-0.108 0.238,-0.111 0.235,-0.111C0.194,-0.064 0.151,-0.013 0.089,-0.013C0.066,-0.013 0.047,-0.023 0.047,-0.058C0.047,-0.09 0.06,-0.124 0.08,-0.156C0.116,-0.166 0.169,-0.187 0.215,-0.216C0.255,-0.241 0.293,-0.272 0.293,-0.305C0.293,-0.329 0.277,-0.334 0.261,-0.334C0.201,-0.334 0.102,-0.258 0.057,-0.206C0.019,-0.162 -0.008,-0.111 -0.008,-0.067C-0.008,-0.022 0.015,0.007 0.076,0.007ZM0.092,-0.17C0.12,-0.211 0.157,-0.248 0.189,-0.277C0.206,-0.292 0.239,-0.318 0.262,-0.318C0.273,-0.318 0.278,-0.311 0.278,-0.302C0.278,-0.278 0.228,-0.238 0.216,-0.23C0.18,-0.205 0.127,-0.182 0.092,-0.17Z" style="fill:rgb(255,203,15);fill-rule:nonzero;"/>
            </g>
            <g transform="matrix(720,0,0,720,920.784,578.8)">
                <path d="M0.022,-0C0.08,-0 0.136,-0.055 0.189,-0.11C0.216,-0.139 0.355,-0.301 0.378,-0.334C0.353,-0.336 0.322,-0.332 0.291,-0.28C0.28,-0.261 0.231,-0.186 0.209,-0.16C0.146,-0.087 0.077,-0.031 0.042,-0.031C0.033,-0.031 0.03,-0.035 0.03,-0.042C0.03,-0.054 0.04,-0.075 0.052,-0.096C0.09,-0.163 0.135,-0.222 0.186,-0.272C0.199,-0.285 0.212,-0.298 0.225,-0.307C0.23,-0.311 0.239,-0.315 0.247,-0.319C0.258,-0.324 0.262,-0.329 0.262,-0.336C0.255,-0.331 0.242,-0.33 0.234,-0.33C0.206,-0.33 0.168,-0.334 0.146,-0.332C0.123,-0.33 0.098,-0.314 0.091,-0.291C0.111,-0.303 0.134,-0.306 0.162,-0.308C0.176,-0.309 0.194,-0.31 0.211,-0.312C0.196,-0.305 0.179,-0.294 0.165,-0.282C0.118,-0.246 0.042,-0.178 0.005,-0.114C-0.01,-0.087 -0.022,-0.059 -0.022,-0.037C-0.022,-0.015 -0.01,-0 0.022,-0Z" style="fill:rgb(255,203,15);fill-rule:nonzero;"/>
            </g>
            <g transform="matrix(720,0,0,720,1125.26,578.8)">
                <path d="M0.076,0.007C0.148,0.007 0.194,-0.044 0.235,-0.091C0.238,-0.095 0.239,-0.1 0.239,-0.105C0.239,-0.108 0.238,-0.111 0.235,-0.111C0.194,-0.064 0.151,-0.013 0.089,-0.013C0.066,-0.013 0.047,-0.023 0.047,-0.058C0.047,-0.09 0.06,-0.124 0.08,-0.156C0.116,-0.166 0.169,-0.187 0.215,-0.216C0.255,-0.241 0.293,-0.272 0.293,-0.305C0.293,-0.329 0.277,-0.334 0.261,-0.334C0.201,-0.334 0.102,-0.258 0.057,-0.206C0.019,-0.162 -0.008,-0.111 -0.008,-0.067C-0.008,-0.022 0.015,0.007 0.076,0.007ZM0.092,-0.17C0.12,-0.211 0.157,-0.248 0.189,-0.277C0.206,-0.292 0.239,-0.318 0.262,-0.318C0.273,-0.318 0.278,-0.311 0.278,-0.302C0.278,-0.278 0.228,-0.238 0.216,-0.23C0.18,-0.205 0.127,-0.182 0.092,-0.17Z" style="fill:rgb(255,203,15);fill-rule:nonzero;"/>
            </g>
            <g transform="matrix(720,0,0,720,1301.66,578.8)">
                <path d="M0.076,0.007C0.148,0.007 0.194,-0.044 0.235,-0.091C0.238,-0.095 0.239,-0.1 0.239,-0.105C0.239,-0.108 0.238,-0.111 0.235,-0.111C0.194,-0.064 0.151,-0.013 0.089,-0.013C0.066,-0.013 0.047,-0.023 0.047,-0.058C0.047,-0.09 0.06,-0.124 0.08,-0.156C0.116,-0.166 0.169,-0.187 0.215,-0.216C0.255,-0.241 0.293,-0.272 0.293,-0.305C0.293,-0.329 0.277,-0.334 0.261,-0.334C0.201,-0.334 0.102,-0.258 0.057,-0.206C0.019,-0.162 -0.008,-0.111 -0.008,-0.067C-0.008,-0.022 0.015,0.007 0.076,0.007ZM0.092,-0.17C0.12,-0.211 0.157,-0.248 0.189,-0.277C0.206,-0.292 0.239,-0.318 0.262,-0.318C0.273,-0.318 0.278,-0.311 0.278,-0.302C0.278,-0.278 0.228,-0.238 0.216,-0.23C0.18,-0.205 0.127,-0.182 0.092,-0.17Z" style="fill:rgb(255,203,15);fill-rule:nonzero;"/>
            </g>
            <g transform="matrix(720,0,0,720,1478.06,578.8)">
                <path d="M0.141,0.024C0.316,0.024 0.426,-0.143 0.528,-0.306L0.586,-0.306L0.598,-0.32L0.536,-0.32L0.566,-0.367C0.617,-0.447 0.675,-0.502 0.709,-0.522L0.71,-0.522C0.741,-0.519 0.773,-0.517 0.805,-0.517C0.831,-0.518 0.863,-0.529 0.863,-0.552C0.863,-0.56 0.857,-0.563 0.852,-0.563L0.85,-0.563C0.834,-0.547 0.782,-0.542 0.723,-0.542C0.616,-0.542 0.523,-0.563 0.424,-0.568C0.413,-0.569 0.402,-0.569 0.391,-0.569C0.303,-0.569 0.246,-0.546 0.209,-0.495C0.2,-0.483 0.195,-0.466 0.195,-0.448C0.195,-0.429 0.201,-0.409 0.215,-0.394C0.22,-0.389 0.23,-0.383 0.239,-0.383C0.243,-0.383 0.247,-0.384 0.25,-0.387C0.245,-0.387 0.237,-0.394 0.232,-0.4C0.228,-0.407 0.225,-0.416 0.225,-0.426C0.225,-0.44 0.23,-0.457 0.242,-0.473C0.284,-0.53 0.37,-0.546 0.46,-0.546C0.471,-0.546 0.483,-0.545 0.495,-0.545C0.564,-0.542 0.629,-0.532 0.693,-0.524C0.649,-0.497 0.588,-0.431 0.54,-0.373L0.498,-0.32L0.418,-0.32L0.407,-0.306L0.487,-0.306C0.437,-0.24 0.392,-0.176 0.353,-0.135C0.292,-0.069 0.218,0.007 0.129,0.007C0.073,0.007 0.05,-0.021 0.05,-0.059C0.05,-0.066 0.051,-0.073 0.052,-0.08C0.063,-0.133 0.097,-0.18 0.129,-0.211C0.187,-0.27 0.281,-0.322 0.362,-0.322C0.374,-0.322 0.385,-0.32 0.396,-0.32C0.4,-0.32 0.403,-0.321 0.403,-0.322C0.403,-0.324 0.4,-0.326 0.391,-0.327C0.374,-0.33 0.357,-0.331 0.34,-0.331C0.248,-0.331 0.165,-0.292 0.102,-0.236C0.048,-0.189 0.015,-0.128 0.015,-0.076C0.015,-0.054 0.021,-0.033 0.033,-0.016C0.053,0.008 0.088,0.024 0.141,0.024Z" style="fill:rgb(255,203,15);fill-rule:nonzero;"/>
            </g>
            <g transform="matrix(720,0,0,720,1856.78,578.8)">
                <path d="M0.076,0.007C0.148,0.007 0.194,-0.044 0.235,-0.091C0.238,-0.095 0.239,-0.1 0.239,-0.105C0.239,-0.108 0.238,-0.111 0.235,-0.111C0.194,-0.064 0.151,-0.013 0.089,-0.013C0.066,-0.013 0.047,-0.023 0.047,-0.058C0.047,-0.09 0.06,-0.124 0.08,-0.156C0.116,-0.166 0.169,-0.187 0.215,-0.216C0.255,-0.241 0.293,-0.272 0.293,-0.305C0.293,-0.329 0.277,-0.334 0.261,-0.334C0.201,-0.334 0.102,-0.258 0.057,-0.206C0.019,-0.162 -0.008,-0.111 -0.008,-0.067C-0.008,-0.022 0.015,0.007 0.076,0.007ZM0.092,-0.17C0.12,-0.211 0.157,-0.248 0.189,-0.277C0.206,-0.292 0.239,-0.318 0.262,-0.318C0.273,-0.318 0.278,-0.311 0.278,-0.302C0.278,-0.278 0.228,-0.238 0.216,-0.23C0.18,-0.205 0.127,-0.182 0.092,-0.17Z" style="fill:rgb(255,203,15);fill-rule:nonzero;"/>
            </g>
            <g transform="matrix(720,0,0,720,2033.18,578.8)">
                <path d="M0.083,0.007C0.115,0.007 0.151,-0 0.184,-0.025C0.204,-0.04 0.225,-0.06 0.254,-0.091C0.257,-0.095 0.258,-0.1 0.258,-0.105C0.258,-0.108 0.257,-0.111 0.254,-0.111C0.246,-0.102 0.223,-0.076 0.212,-0.066C0.191,-0.047 0.156,-0.006 0.085,-0.006C0.139,-0.018 0.166,-0.068 0.176,-0.1C0.195,-0.162 0.197,-0.274 0.2,-0.306C0.218,-0.322 0.235,-0.335 0.253,-0.346C0.285,-0.365 0.313,-0.372 0.328,-0.369C0.33,-0.372 0.331,-0.376 0.331,-0.38C0.331,-0.394 0.321,-0.407 0.299,-0.407C0.254,-0.407 0.22,-0.366 0.193,-0.338C0.133,-0.27 0.055,-0.161 0.025,-0.123C0.006,-0.123 -0.014,-0.104 -0.014,-0.069C-0.014,-0.039 -0.003,-0.022 0.012,-0.011C0.03,0.002 0.056,0.007 0.083,0.007ZM0.048,-0.012C0.029,-0.012 0.018,-0.03 0.018,-0.055C0.018,-0.077 0.027,-0.104 0.045,-0.127C0.075,-0.165 0.132,-0.241 0.189,-0.295C0.175,-0.238 0.147,-0.14 0.125,-0.092C0.11,-0.06 0.082,-0.012 0.048,-0.012Z" style="fill:rgb(255,203,15);fill-rule:nonzero;"/>
            </g>
            <g transform="matrix(720,0,0,720,2223.26,578.8)">
                <path d="M0.129,0.282C0.253,0.282 0.38,0.208 0.464,0.052C0.482,0.02 0.499,-0.034 0.499,-0.08C0.499,-0.131 0.478,-0.177 0.414,-0.177C0.274,-0.177 0.205,0.003 0.199,0.036C0.198,0.038 0.198,0.041 0.198,0.043C0.198,0.053 0.2,0.066 0.202,0.066C0.199,0.066 0.283,-0.162 0.412,-0.162C0.456,-0.162 0.47,-0.134 0.47,-0.1C0.47,-0.05 0.441,0.017 0.425,0.049C0.351,0.19 0.235,0.268 0.14,0.268C0.025,0.268 -0.013,0.207 -0.013,0.129C-0.013,0.037 0.039,-0.079 0.083,-0.15C0.142,-0.247 0.223,-0.338 0.295,-0.407C0.387,-0.4 0.475,-0.386 0.571,-0.386C0.67,-0.386 0.794,-0.412 0.794,-0.515C0.794,-0.541 0.774,-0.577 0.744,-0.577C0.74,-0.577 0.736,-0.576 0.733,-0.573C0.747,-0.573 0.762,-0.549 0.762,-0.523C0.762,-0.434 0.635,-0.403 0.522,-0.403C0.45,-0.403 0.374,-0.412 0.308,-0.418C0.348,-0.457 0.387,-0.485 0.417,-0.502C0.396,-0.502 0.369,-0.49 0.329,-0.466C0.313,-0.456 0.292,-0.441 0.272,-0.423C0.241,-0.425 0.212,-0.427 0.185,-0.427C0.119,-0.427 0.071,-0.418 0.071,-0.393C0.071,-0.387 0.075,-0.384 0.08,-0.384C0.103,-0.406 0.152,-0.411 0.198,-0.411C0.219,-0.411 0.24,-0.41 0.258,-0.409C0.113,-0.272 -0.049,-0.094 -0.064,0.101C-0.072,0.207 -0.013,0.282 0.129,0.282Z" style="fill:rgb(255,203,15);fill-rule:nonzero;"/>
            </g>
        </g>
    </g>
</svg>
